<svg xmlns="http://www.w3.org/2000/svg" viewBox="0 0 512 512">
  <defs>
    <linearGradient id="bg-grad" x1="0%" y1="0%" x2="100%" y2="100%">
      <stop offset="0%" stop-color="#f59e0b" />
      <stop offset="100%" stop-color="#b45f06" />
    </linearGradient>
  </defs>
  <rect width="512" height="512" rx="100" fill="url(#bg-grad)" />
  
  <!-- Crescent Moon -->
  <path d="M304.8 54.4c-83 0-150.3 67.3-150.3 150.3 0 11.2 1.2 22 3.5 32.5-3.3-.4-6.6-.6-10-.6-83 0-150.3 67.3-150.3 150.3S65 537.2 148 537.2c74.6 0 136.5-54.2 148.5-125.4 7.2 2.7 15 4.1 23 4.1 36.3 0 65.8-29.5 65.8-65.8s-29.5-65.8-65.8-65.8c-1.6 0-3.3.1-4.9.2-22.1-45.7-65.3-78.6-116.3-85.1 12.3-16.7 28.5-30.8 47.7-40.7 20-10.4 42.6-16.1 66.2-16.1 39.5 0 76.5 15.4 104.4 43.3-13.3-64.8-69.5-113.8-137.4-113.8z" fill="none"/>
  
  <path d="M260.6 84.1c-13.6-1-26.4 7.6-30.1 20.8-3.7 13.2 2.6 27.6 14.8 33.7 45.3 22.8 72 73.1 63 129.5-8.5 53.6-43.6 96.9-94.2 115.6-53.5 19.8-111-.3-149.6-47.5-9.3-11.4-26.6-13.8-38.6-5.3-12 8.4-14.7 26.2-6.1 38.6 44.9 64.9 123.4 97.4 204.3 80.1 82.2-17.6 145.2-82.5 158.4-165.7 12.3-77.9-19-152.9-79.6-193.5-12.8-8.6-28.7-7.7-42.3-6.3z" fill="#FFF" />
  
  <!-- Glowing Main Star -->
  <path d="M400.9 98.7L389.2 122.3l-26.2 3.8c-12 1.7-16.7 16.5-8 25L374 169.6l-4.5 26.1c-2 11.9 10.4 20.9 21.2 15.2l23.5-12.3 23.5 12.3c10.8 5.7 23.2-3.3 21.2-15.2l-4.5-26.1 19-18.5c8.7-8.5 4-23.3-8-25l-26.2-3.8-11.7-23.6c-5.3-10.9-20.9-10.9-26.3 0z" fill="#FFF" />
  
  <!-- Little ambient stars -->
  <circle cx="130" cy="180" r="14" fill="#FFEAA7" opacity="0.9" />
  <circle cx="160" cy="100" r="7" fill="#FFEAA7" opacity="0.6" />
  <circle cx="360" cy="380" r="10" fill="#FFEAA7" opacity="0.8" />
  <circle cx="100" cy="400" r="8" fill="#FFF" opacity="0.5" />
</svg>
